<svg width="23" height="24" viewBox="0 0 23 24" fill="none" xmlns="http://www.w3.org/2000/svg">
<path d="M8.06169 11.6223C8.11052 11.9903 8.24422 12.2305 8.61305 12.2093C8.69836 12.2042 8.85331 12.0755 8.85235 12.0055C8.84335 11.5973 8.52666 11.5816 8.22259 11.5641C8.19766 11.5627 8.17159 11.5812 8.06169 11.6223ZM13.8456 9.06468C13.9294 9.042 14.0135 9.01434 14.0974 8.99166C14.05 8.85889 14.041 8.66832 13.9447 8.60276C13.7956 8.49915 13.5918 8.4774 13.4103 8.41693C13.3838 8.57295 13.2808 8.79709 13.3492 8.86854C13.4549 8.98716 13.674 9.00478 13.8456 9.06468ZM14.3659 15.6615C14.8503 15.4568 14.9277 15.2412 14.6336 14.9642C14.5505 14.8869 14.3928 14.8903 14.164 14.8246C14.243 15.1468 14.2934 15.3572 14.3659 15.6615ZM17.4502 14.2987C17.2332 13.551 16.5602 13.2096 15.9774 12.821C14.1856 11.6275 12.3613 10.4771 10.5558 9.30531C9.39877 8.55348 8.2555 7.77993 7.09583 7.03045C6.76777 6.8215 6.41043 6.64337 6.04523 6.51481C5.88595 6.45812 5.6697 6.5657 5.48033 6.5973C5.53336 6.80541 5.51436 7.0919 5.64761 7.2096C6.11608 7.6292 6.61326 8.02794 7.14145 8.36594C9.72427 10.0226 12.3232 11.6602 14.9142 13.3049C15.4981 13.6736 16.0689 14.0541 16.661 14.4108C16.9172 14.5656 17.2079 14.7274 17.4502 14.2987ZM4.5899 12.1576C3.50094 10.962 3.00309 9.53297 2.79272 7.97542C2.68207 7.16133 3.10443 6.55798 3.64246 6.07383C4.77416 5.05121 6.2098 4.65627 7.66141 4.37477C8.54141 4.2054 9.43477 4.4119 10.2339 4.7355C12.5334 5.66568 14.5834 6.97908 16.3621 8.747C17.3129 9.69201 18.2418 10.6283 18.7869 11.845C19.2987 12.9873 19.8074 14.1419 19.8119 15.4525C19.8143 17.4507 18.3836 18.9762 16.3871 18.9488C14.3807 18.9207 12.5599 18.2307 10.8326 17.2635C9.29928 16.4024 7.98932 15.2667 6.76102 14.0156C6.09462 13.342 5.31957 12.7748 4.5899 12.1576Z" fill="#8B7B5B"></path>
</svg>
