<svg width="32" height="16" viewBox="0 0 32 16" fill="none" xmlns="http://www.w3.org/2000/svg">
<g clip-path="url(#clip0_4591_3394)">
<path d="M22.4745 3.43726C22.1298 3.56969 22.0032 3.84848 21.9244 4.18443C21.7795 3.8903 21.8751 3.72721 22.4478 3.25047C22.4168 3.20447 22.3943 3.13477 22.3493 3.11247C22.1931 3.0358 22.1664 2.87549 22.0932 2.74724C22.0074 2.59809 22.0299 2.51445 22.1804 2.41827C22.4154 2.26911 22.6532 2.12414 22.8994 1.99589C23.1934 1.84116 23.4959 1.70177 23.797 1.56098C24.5244 1.22085 25.1659 1.38394 25.7413 1.89971C26.1958 2.30814 26.5391 2.79185 26.767 3.3592C26.9625 3.84569 27.2946 4.21649 27.7645 4.47019C28.3371 4.78105 28.7367 5.255 28.9632 5.8558C29.1587 6.37575 29.488 6.77025 29.9551 7.06159C30.3124 7.28462 30.629 7.54948 30.8696 7.89797C31.1749 8.33986 31.3338 8.82078 31.3578 9.35885C31.3704 9.66413 30.9723 10.1214 30.7092 10.1785C30.3673 10.2524 29.9396 10.0475 29.782 9.71013C29.744 9.62928 29.7328 9.53449 29.7201 9.44528C29.7032 9.33933 29.692 9.232 29.6877 9.12466C29.6751 8.82775 29.5161 8.62144 29.2741 8.47089C28.9519 8.27016 28.6438 8.05549 28.3751 7.78366C27.9783 7.3822 27.6871 6.91661 27.4958 6.39109C27.4085 6.14993 27.2735 5.95895 27.047 5.82932C26.4884 5.5101 26.0087 5.10445 25.6752 4.54965C25.5373 4.31964 25.4262 4.07431 25.2996 3.83872C25.1983 3.64914 25.1054 3.45538 24.9844 3.27835C24.6932 2.85179 24.2008 2.92707 23.9109 3.18356C23.7351 3.33829 23.6014 3.5446 23.4706 3.74254C23.2469 4.08267 22.9275 4.098 22.694 3.76206C22.6208 3.65611 22.5519 3.54599 22.4759 3.43168L22.4745 3.43726Z" fill="#8B7B5B"></path>
<path d="M15.541 15.5606H16.2445C16.0489 15.7154 15.7943 15.7181 15.541 15.5606Z" fill="#8B7B5B"></path>
<path d="M23.9558 15.0114C23.832 14.925 23.7293 14.8469 23.6223 14.7772C23.4197 14.6462 23.3803 14.4552 23.5112 14.2475C23.5548 14.1778 23.5956 14.1025 23.6223 14.0231C23.711 13.7513 23.6181 13.5143 23.4732 13.2857C23.4226 13.2048 23.3438 13.0835 23.3719 13.0236C23.4493 12.8605 23.4141 12.7504 23.2973 12.6375C23.2734 12.6138 23.2678 12.5678 23.2594 12.5315C23.2003 12.2611 22.7782 12.1705 22.7233 11.9001C22.6938 11.7509 22.6459 11.3927 22.7543 11.2742C23.0497 10.9536 23.1595 10.5897 22.8091 10.3318C22.6924 10.2454 22.9048 10.2134 22.8513 10.0823C22.7261 9.77007 22.5868 9.46061 22.4827 9.14139C22.4349 8.99502 22.4504 8.82775 22.4447 8.66883C22.4363 8.44022 22.0536 8.21719 22.0452 7.98997C22.0381 7.80039 22.0269 7.61081 22.0142 7.42262C22.01 7.36268 22.0199 7.28741 21.9889 7.24559C21.8046 7.00025 22.2506 6.63503 21.9945 6.41618C22.0466 6.45242 22.1001 6.48866 22.1479 6.52072C22.2196 6.48169 22.283 6.45381 22.3406 6.41618C22.4982 6.31442 22.5883 6.10532 22.5489 5.93804C22.5207 5.81956 22.4982 5.69689 22.4588 5.58258C22.4138 5.45294 22.3505 5.32888 22.2956 5.20203C22.2759 5.2076 22.2576 5.21457 22.2379 5.22015C22.2928 5.45155 22.3491 5.68155 22.4039 5.91295C22.3857 5.91992 22.3688 5.92689 22.3505 5.93386C22.3083 5.85719 22.2604 5.78192 22.2267 5.70246C22.1718 5.56864 22.1338 5.42785 22.0775 5.29542C22.017 5.15463 21.8848 5.01663 21.8918 4.88281C21.9003 4.72111 21.7835 4.64862 21.7511 4.52595C21.7103 4.37261 21.6977 4.22625 21.7033 4.06176C21.7174 3.71745 21.9003 3.51114 22.1479 3.32295C22.2042 3.27974 22.2534 3.22538 22.3055 3.17659C22.2956 3.15847 22.2872 3.13895 22.2773 3.12083C22.2253 3.12919 22.1648 3.12501 22.1212 3.1501C21.8159 3.32017 21.4683 3.44981 21.3938 3.88333C21.1856 3.66308 21.0069 3.47211 20.8113 3.2658C20.8817 3.23792 20.9168 3.22538 20.952 3.20865C21.0885 3.14034 21.1068 3.06786 20.9998 2.96749C20.952 2.92288 20.8817 2.90197 20.8212 2.8741C20.7677 2.849 20.7072 2.83506 20.6594 2.803C20.5707 2.74306 20.4948 2.665 20.4033 2.60785C20.1149 2.42663 19.842 2.5716 19.8237 2.91173C19.8223 2.93961 19.8124 2.96749 19.8068 2.99119C19.2581 3.08598 16.6454 3.07343 16.2796 2.96192C16.6947 2.92149 17.1097 2.89919 17.5248 2.86573C17.7555 2.84761 17.9933 2.83228 18.1846 2.63294C18.0932 2.60506 18.013 2.57718 17.9328 2.55627C17.8484 2.53536 17.7161 2.55906 17.74 2.41966C17.7653 2.27329 17.8948 2.33463 17.9876 2.33881C18.0256 2.3402 18.065 2.35833 18.1016 2.35693C18.1733 2.35275 20.022 2.46566 20.0938 2.4559C20.0938 2.43221 20.0924 2.4099 20.091 2.38621C19.8166 2.37087 17.7625 2.22729 17.4882 2.21196C17.2912 2.2022 17.2462 2.15202 17.3109 1.9708C17.3348 1.90389 17.4094 1.83559 17.4769 1.80492C17.8892 1.61813 18.186 1.31564 18.4013 0.929506C18.5026 0.749684 18.5926 0.562892 18.677 0.373312C18.7305 0.250642 18.6728 0.160034 18.5476 0.125185C18.4364 0.0945175 18.3211 0.07082 18.2057 0.0638501C17.8272 0.0415466 17.4488 0.019243 17.0689 0.0150611C16.3387 0.00948524 15.6114 0.00948524 14.8826 0.00948524C14.7982 0.00948524 14.7137 0.0317888 14.6293 0.0415466C14.4886 0.0582742 14.4436 0.146094 14.4703 0.268764C14.4971 0.395615 14.5266 0.525255 14.5773 0.643742C14.7813 1.10793 15.095 1.47873 15.5466 1.72546C15.6648 1.78959 15.7225 1.86625 15.6915 2.00286C15.6803 2.05165 15.6901 2.10602 15.6901 2.17153C15.6128 2.18826 15.5466 2.20917 15.4791 2.21475C15.2638 2.23705 15.0486 2.25378 14.8319 2.27051C14.2241 2.3193 13.6149 2.36251 13.0072 2.41687C12.8538 2.43081 12.7033 2.47403 12.5527 2.50888C12.4317 2.53675 12.3445 2.58833 12.2263 2.63015C12.0898 2.67755 12.1532 2.77652 12.1799 2.82252C12.035 2.9187 12.3037 3.06368 12.1532 3.16404C12.1588 3.16683 11.9069 3.35223 12.0856 3.40938C12.0772 3.43029 11.9477 3.99206 11.914 4.01297C11.7944 4.13843 11.6734 4.25691 11.5637 4.44371C11.4863 4.63189 11.4483 4.8382 11.3793 5.02917C11.3695 5.01523 11.3597 5.00269 11.3498 4.99154C11.1585 5.76101 11.5482 5.92689 11.2907 6.76467C11.0192 7.64845 10.5704 7.51184 10.2974 8.39561C10.0259 9.27939 10.4747 9.41461 10.2018 10.2984C9.93022 11.1822 9.48142 11.0456 9.20848 11.9293C8.93694 12.8131 9.39137 12.2472 9.04527 13.1058C8.93553 13.3777 10.0006 12.243 9.18174 12.3824C9.24928 12.427 8.81032 12.8577 8.86941 12.8967C8.8666 12.9121 8.29679 13.0152 8.29398 13.0306C8.18565 13.0473 8.07731 13.064 7.96898 13.0808C7.96617 13.0696 7.96476 13.0584 7.96195 13.0473C7.99993 13.0264 8.03651 13.0055 8.06606 12.9887C7.94929 12.9887 7.81703 13.0222 7.71011 12.9818C7.41606 12.8717 7.12483 12.7462 6.84767 12.5984C6.37917 12.3475 5.99226 11.9921 5.66727 11.5767C5.35774 11.1808 5.11153 10.7389 4.99195 10.251C4.88783 9.82862 4.82593 9.3937 4.76262 8.96157C4.65851 8.24088 4.57128 7.51741 4.47139 6.79673C4.35321 5.93944 4.10277 5.12257 3.68211 4.36007C3.64693 4.29595 3.63005 4.20534 3.50343 4.19C3.64834 4.51619 3.81998 4.80614 3.9044 5.11978C4.07042 5.72616 4.21955 6.33951 4.31522 6.95843C4.42918 7.70002 4.48827 8.44998 4.5544 9.19854C4.62052 9.94292 4.81045 10.6483 5.18751 11.2979C5.58848 11.9921 6.10341 12.5706 6.85892 12.9009C7.32461 13.1044 7.77764 13.3526 8.30242 13.3818C8.43749 13.3888 8.41497 13.4948 8.42623 13.6146C8.56551 13.6035 8.69214 13.5937 8.81735 13.584C8.83142 13.7722 8.82017 13.8 8.65837 13.7819C8.34322 13.7443 8.02807 13.708 7.71855 13.6397C7.14875 13.5143 6.65351 13.2271 6.19205 12.8842C5.73621 12.5455 5.35352 12.137 5.04119 11.6631C4.56565 10.941 4.38557 10.1297 4.28708 9.29333C4.17031 8.30361 4.06901 7.3125 3.95223 6.32417C3.87767 5.68434 3.67367 5.08633 3.35148 4.52456C3.13763 4.15097 2.83092 3.85963 2.53266 3.55854C2.11058 3.13198 1.61957 2.80161 1.08353 2.53397C0.859832 2.42245 0.523579 2.51585 0.349121 2.74306C0.396956 2.757 0.437757 2.77094 0.479964 2.77931C0.524986 2.78906 0.572821 2.78906 0.616435 2.803C1.58861 3.12919 2.31177 3.78018 2.89001 4.58589C3.19813 5.01524 3.39791 5.52125 3.48514 6.04817C3.59488 6.70612 3.68914 7.36686 3.75386 8.03039C3.83546 8.85702 3.95927 9.67389 4.17453 10.4754C4.46576 11.5669 5.07073 12.4563 5.97538 13.1379C6.42137 13.4739 6.92364 13.7178 7.4639 13.8739C7.80437 13.9715 8.1547 14.0342 8.49095 14.1416C8.63023 14.1862 8.74701 14.3019 8.868 14.3939C8.96086 14.465 8.90599 14.557 8.89192 14.6476C8.88488 14.6908 8.9285 14.741 8.95664 14.8037C8.99181 14.6908 8.97774 14.5611 9.1733 14.5625C9.20566 14.7117 9.23802 14.8622 9.26897 15.0086C9.1719 15.0379 9.1114 15.056 9.05231 15.0741C9.05231 15.0909 9.05231 15.1076 9.05231 15.1257C9.44906 15.2665 9.85847 15.3515 10.289 15.3264C10.078 15.3933 9.84862 15.3 9.64603 15.4366C9.80782 15.4881 9.97384 15.5104 10.1356 15.5495C10.3199 15.5927 10.5352 15.562 10.6773 15.7195C10.7758 15.8283 10.8982 15.8534 11.0318 15.8617C11.1317 15.8687 11.233 15.8687 11.3343 15.8743C12.1222 15.9161 12.9101 15.9914 13.6979 15.9928C15.9265 15.9969 18.1579 16.0694 20.385 15.9161C20.9787 15.8757 21.5739 15.8478 22.1676 15.8129C22.1999 15.8115 22.2323 15.792 22.2647 15.7809C22.2647 15.7641 22.2618 15.746 22.2604 15.7293C22.1493 15.7293 22.0367 15.7251 21.9256 15.7293C21.6245 15.7432 21.3234 15.7614 21.0224 15.7767C20.9998 15.7767 20.9759 15.7809 20.9534 15.7823C20.2514 15.8255 19.5493 15.8771 18.8473 15.9063C18.4224 15.9245 17.9947 15.9105 17.5684 15.9105C17.135 15.9105 16.7017 15.9272 16.2796 15.7892C16.1572 15.7488 16.0208 15.7335 15.8899 15.7349C15.7703 15.7363 15.6522 15.7753 15.534 15.8018C15.4524 15.8199 15.3736 15.8603 15.292 15.8631C15.0598 15.8715 14.8277 15.8687 14.5942 15.8617C14.5182 15.8589 14.4422 15.8311 14.3493 15.8115C14.4324 15.6903 14.6195 15.7446 14.6096 15.5523C14.2945 15.5258 13.9793 15.4993 13.6642 15.4728C13.7416 15.4533 13.8189 15.4547 13.8949 15.4533C14.8474 15.4533 15.8013 15.4617 16.7538 15.4463C17.8287 15.4296 18.9049 15.392 19.9798 15.3627C20.5215 15.3487 21.0632 15.3306 21.6048 15.3195C21.8778 15.3139 22.1521 15.3195 22.4265 15.3195C22.4265 15.3278 22.4265 15.3362 22.4265 15.3432C22.3252 15.3557 22.2225 15.3669 22.1197 15.3794C22.1704 15.6443 22.1985 15.654 22.4011 15.5578C22.487 15.5174 22.5911 15.5049 22.6881 15.4965C22.8049 15.4867 22.9161 15.4784 22.9949 15.325C22.8612 15.3153 22.7458 15.3083 22.6305 15.3C22.8513 15.2414 23.0722 15.2163 23.2931 15.187C23.5126 15.1564 23.7546 15.1996 23.9501 15.0128L23.9558 15.0114ZM16.5273 2.02796C16.5427 1.96104 16.6145 1.90807 16.6933 1.80771C16.7692 1.90807 16.8635 1.98892 16.8494 2.02238C16.8185 2.09487 16.7383 2.17572 16.6637 2.19244C16.5652 2.21475 16.5062 2.11578 16.5273 2.02796ZM22.4152 14.9598C22.4025 15.1104 21.7399 15.187 21.2404 15.2303L21.2081 15.0602C21.0463 15.1508 20.8718 15.1884 20.6889 15.2052C20.4497 15.2275 20.212 15.2512 19.9728 15.2609C19.123 15.2958 18.2718 15.325 17.4221 15.3557C17.3756 15.3571 17.3292 15.3557 17.2828 15.3557C16.9198 15.3543 16.8297 15.2665 16.796 14.8999C16.765 14.5723 16.7453 14.2419 16.6862 13.9199C16.6539 13.7457 16.5568 13.5798 16.4752 13.4167C16.4147 13.2954 16.4133 13.1853 16.4611 13.0626C16.4893 12.9915 16.5047 12.9163 16.5202 12.841C16.5582 12.6709 16.5821 12.5023 16.6876 12.3475C16.8129 12.1621 16.8199 11.9419 16.7707 11.7244C16.6736 11.2993 16.5863 10.8727 16.4077 10.4684C16.3218 10.2747 16.2909 10.0558 16.2445 9.84674C16.2121 9.70037 16.2642 9.58746 16.3809 9.48152C16.713 9.18042 16.8593 8.82078 16.7158 8.36913C16.5807 7.94536 16.4654 7.51602 16.2079 7.14104C16.146 7.04904 16.1235 6.93055 16.0827 6.82461C16.0362 6.70473 15.9983 6.57927 15.9364 6.46497C15.8843 6.36878 15.8871 6.29072 15.9589 6.21266C16.0841 6.07744 16.2023 5.93386 16.3415 5.81537C16.4541 5.72058 16.4836 5.6244 16.4428 5.49197C16.35 5.19227 16.2304 4.89814 16.1741 4.59286C16.1178 4.29455 16.1108 3.98509 16.1108 3.67981C16.1108 3.51532 16.2205 3.43587 16.3852 3.42471C16.7636 3.40102 17.1421 3.38011 17.4854 3.36059C17.9468 3.3829 18.3717 3.40102 18.7966 3.42611C19.2173 3.45259 19.5817 3.77739 19.6745 4.20534C19.7013 4.32801 19.721 4.44092 19.8448 4.5148C19.8659 4.52735 19.8771 4.56219 19.8842 4.59983L20.1135 4.67371C20.309 5.57701 20.7677 5.47943 20.9633 6.38133C21.1588 7.28462 20.7002 7.3822 20.8957 8.2841C21.0913 9.18739 21.5499 9.08981 21.7455 9.99171C21.9411 10.895 21.4824 10.9926 21.678 11.8945C21.8735 12.7978 22.3322 12.7002 22.5292 13.6021C22.6755 14.2796 22.4546 14.504 22.418 14.9542L22.4152 14.9598Z" fill="#8B7B5B"></path>
<path d="M0.35498 2.74027C0.35498 2.74027 0.851622 2.34439 1.22586 2.34439C1.6001 2.34439 2.97747 3.09295 3.62606 4.15097C4.27465 5.209 4.49835 6.76049 4.84164 9.94153C5.18492 13.1226 9.29875 12.6904 9.29875 12.6904L9.14258 14.235C9.14258 14.235 7.61608 13.8948 6.89855 13.5254C6.18102 13.156 4.40549 11.9196 4.12411 9.54146C3.84273 7.16334 3.36156 4.36565 2.53429 3.76763C1.26244 2.84343 0.35498 2.74027 0.35498 2.74027Z" fill="#8B7B5B"></path>
<path d="M8.8216 13.5826C8.8216 13.5826 8.5177 14.9738 9.11002 15.3446C9.70233 15.7154 10.2637 15.9928 16.0602 15.9928C21.8567 15.9928 23.8207 15.9008 23.9445 15.622C24.0684 15.3432 24.0641 15.0909 23.9544 15.0114C23.8447 14.9319 23.3002 14.911 23.3002 14.911C23.3002 14.911 18.9894 15.1884 16.0588 15.1884C13.1282 15.1884 8.82019 13.5812 8.82019 13.5812L8.8216 13.5826Z" fill="#8B7B5B"></path>
<path d="M22.1904 5.95756C22.1904 5.95756 22.2017 7.11874 22.2326 7.68748C22.2636 8.25622 22.628 8.63398 23.0641 9.51916C23.5003 10.4043 23.0866 11.2714 23.0852 11.723C23.0838 12.1747 23.7071 12.8954 23.8112 13.4097C23.9153 13.9241 23.9983 15.1801 23.9983 15.1801L23.1471 15.4477L22.4409 11.2686L21.4434 6.43151L22.1918 5.95756H22.1904Z" fill="#8B7B5B"></path>
</g>
<defs>
<clipPath id="clip0_4591_3394">
<rect width="31" height="16" fill="white" transform="translate(0.35498 0.00948524)"></rect>
</clipPath>
</defs>
</svg>
