<svg xmlns="http://www.w3.org/2000/svg" fill="none" viewBox="0 0 49 87" height="87" width="49">
<path fill="black" d="M24.5449 0C25.7513 0.818722 26.9577 1.6396 28.199 2.48202C28.2448 2.4734 28.3626 2.48633 28.4368 2.43678C31.9753 0.0840268 32.3418 0.144354 35.3633 3.23395C35.6621 3.5399 36.4955 3.73811 36.8205 3.54851C39.3621 2.07266 40.5248 2.17392 42.4053 4.45342C43.0685 5.25921 43.7077 5.67719 44.7898 5.74398C46.4107 5.84524 48.3261 8.10104 48.6511 10.1802C48.8453 11.4212 48.9195 12.6923 48.9173 13.9506C48.9151 15.1442 48.3523 15.9457 47.0041 16.0534C44.3469 16.2624 42.0781 17.4689 39.7482 18.6647C36.9209 20.1147 33.9387 21.2889 30.9565 22.4114C29.8046 22.8445 29.2724 23.5189 29.2025 24.594C29.0084 27.5672 28.8535 30.5426 28.7357 33.5202C28.3801 42.5003 28.0485 51.4825 27.7147 60.4626C27.7104 60.6005 27.7954 60.7427 27.8369 60.8763C31.7288 60.8871 35.9523 56.5263 35.1495 52.3939C33.7729 45.3098 32.8479 38.1374 31.7397 31.0016C31.5215 29.599 32.0975 28.9117 33.57 28.903C37.1936 28.8815 40.8172 28.9138 44.4407 28.888C45.6471 28.8793 46.1969 29.4762 46.367 30.5857C46.6463 32.3826 46.9604 34.173 47.244 35.9699C47.4884 37.5298 46.9822 38.1352 45.4246 38.1675C44.7222 38.1826 44.0175 38.1697 43.254 38.1697C43.9259 42.6123 44.432 46.9192 45.2479 51.1701C47.6236 63.5587 37.7433 70.6406 29.2418 71.2482C27.7693 71.3538 27.0253 71.7502 27.069 73.3489C27.1082 74.7946 26.8901 76.2467 26.7701 77.8906C30.6075 78.6124 34.4252 79.2329 38.1927 80.071C41.1509 80.7282 43.8233 80.5019 46.2885 78.6275C47.0237 78.0695 47.9661 77.6062 48.6904 78.6598C49.3907 79.6789 48.8017 80.6937 48.0207 81.1655C45.9962 82.3871 43.9412 83.8264 41.6985 84.3779C35.1691 85.9831 28.5524 87.2693 21.7482 86.9569C14.9853 86.6467 8.39919 85.4552 2.04431 83.1175C0.881541 82.6888 -0.0238056 81.9864 0.0045547 80.5881C0.0263703 79.4893 0.558671 79.0024 1.67999 79.2717C1.92651 79.3299 2.1883 79.3859 2.40645 79.5087C6.17619 81.6568 9.97646 80.5127 13.7942 79.666C16.6193 79.039 19.4641 78.4745 22.3197 78.0027C23.2818 77.8432 23.7574 77.5955 23.7683 76.5505C23.7857 74.8915 23.9406 73.2325 24.0322 71.6533C21.8551 71.0737 19.7564 70.6773 17.7755 69.9577C10.8098 67.4239 6.37253 61.2857 6.81102 54.7725C7.02045 51.6506 7.46112 48.5438 7.84726 45.4369C8.13741 43.0863 8.50609 40.7444 8.87041 38.174C7.89744 38.174 6.99645 38.1998 6.09983 38.1675C4.75817 38.1223 4.15388 37.4953 4.39385 36.2565C4.78653 34.2269 5.17921 32.1844 5.79878 30.2195C5.97548 29.655 6.92446 28.9785 7.53966 28.9591C11.2614 28.8427 14.9897 28.8815 18.7136 28.9095C20.136 28.9203 20.6857 29.6184 20.4567 31.1007C19.5448 36.989 18.6045 42.8752 17.6752 48.7592C17.4396 50.2545 17.1254 51.7411 16.9684 53.2449C16.7022 55.8304 18.0308 57.7479 19.9876 59.1807C21.1788 60.0533 22.647 60.5553 24.3202 61.3869C24.4402 58.2004 24.5384 55.4426 24.6474 52.6869C25.0161 43.4526 25.3935 34.2204 25.7535 24.9861C25.8342 22.9048 25.7688 22.8639 23.6745 22.8704C22.9589 22.8725 22.2412 22.8251 21.5322 22.8768C17.06 23.2108 12.819 22.6312 8.90968 20.2052C7.88435 19.5675 6.53614 19.3951 5.30792 19.1344C4.30877 18.9233 3.80701 18.4471 3.71539 17.4259C3.64121 16.5856 3.54086 15.713 3.23763 14.9352C2.17084 12.1925 3.15473 9.5575 5.72678 8.10966C6.75648 7.53009 7.712 6.74368 8.52791 5.88834C9.54015 4.82831 10.7727 4.74212 12.0424 4.83046C13.2444 4.91233 13.9622 4.55468 14.5577 3.44725C15.5547 1.59004 17.0862 1.10312 19.2546 2.17177C20.9584 3.00988 21.9532 2.77288 22.7931 1.14621C23.0287 0.691605 23.5479 0.379198 23.9384 0.00215453C24.1435 0.00215453 24.3464 0.00215453 24.5515 0.00215453L24.5449 0ZM35.1298 31.8785C35.0622 32.1198 35.0011 32.221 35.0142 32.3094C36.0439 38.8915 37.0671 45.4735 38.1208 52.0513C38.424 53.9495 38.2866 55.7571 37.451 57.5174C34.146 64.4787 24.0475 66.4522 17.7799 61.3331C15.005 59.0665 13.4691 56.2074 13.9949 52.5749C14.7628 47.2812 15.6507 42.0026 16.4797 36.7175C16.724 35.1533 16.94 33.5848 17.1887 31.8785C14.381 31.8785 11.7872 31.8591 9.19328 31.9065C8.89877 31.9129 8.44282 32.2512 8.3512 32.527C8.09159 33.322 7.98252 34.1666 7.77745 35.1706C8.65226 35.1706 9.35472 35.1577 10.0572 35.1727C11.7762 35.2094 12.2693 35.8385 12.0337 37.547C11.329 42.6985 10.5786 47.8457 9.97428 53.0079C9.24782 59.2195 11.8613 63.9724 17.4658 66.5858C22.756 69.0549 28.2165 69.1777 33.6355 67.0663C40.2914 64.4722 43.206 59.6655 42.3181 52.6718C41.6832 47.6712 40.8019 42.7007 39.9882 37.7237C39.6806 35.8471 40.1692 35.1964 42.1021 35.1706C42.6824 35.162 43.2627 35.1706 43.9804 35.1706C43.8212 34.1515 43.7775 33.3866 43.5572 32.6756C43.4568 32.3525 43.0053 31.9172 42.7064 31.9086C40.1671 31.8483 37.6234 31.8741 35.1233 31.8741L35.1298 31.8785ZM15.5176 82.9258C21.3904 84.3219 27.2457 84.2918 33.5308 82.6759C27.1999 80.67 21.3467 80.2649 15.5176 82.9258ZM10.8556 17.4108C12.8496 18.7595 14.645 19.7635 16.8135 19.7894C19.4488 19.8217 22.0863 19.8174 24.7194 19.7312C25.1907 19.7161 25.6488 19.2314 26.1113 18.9642C25.6815 18.6173 25.2976 18.0636 24.8132 17.958C22.9829 17.5594 21.1286 17.1867 19.2655 17.0273C16.5604 16.7967 13.816 16.2818 10.8534 17.4108H10.8556ZM31.7593 4.49866C30.2671 5.41003 30.0359 5.77199 30.3959 7.20045C30.8998 9.1977 31.0503 11.1562 30.4002 13.1599C30.2955 13.4809 30.5856 14.1984 30.8758 14.3233C32.1084 14.862 33.8973 13.9441 34.327 12.6708C35.132 10.2857 33.9016 6.26753 31.7593 4.49866ZM26.5694 13.496C28.8273 11.266 27.7911 6.82556 25.3237 4.77013C25.1514 4.62578 24.3726 4.85847 24.174 5.12994C22.3481 7.61842 23.6636 12.1149 26.5716 13.496H26.5694ZM21.8267 14.1941C21.338 12.5501 20.8254 10.9838 20.4152 9.39376C20.2036 8.56642 20.1687 7.69599 20.0574 6.84279C19.9026 5.64487 19.0648 4.93819 18.0111 5.0136C17.5857 5.04376 16.8331 6.28692 16.94 6.84495C17.3218 8.83789 17.9021 10.8114 18.6111 12.716C19.1543 14.1725 20.4981 14.3492 21.8245 14.1941H21.8267ZM40.8695 9.59198C40.8455 9.08997 40.8935 8.57073 40.7866 8.08596C40.5641 7.07979 40.1889 5.92712 38.9497 6.09086C37.8502 6.23522 37.3441 7.23707 37.4314 8.38975C37.5186 9.54458 37.6517 10.6951 37.7128 11.8521C37.7652 12.813 38.28 13.0349 39.1395 12.8992C40.5488 12.6751 40.9502 11.921 40.8695 9.59413V9.59198ZM12.2998 6.97207C11.4774 7.71969 10.5066 8.29279 10.5851 8.57935C11.0323 10.1931 11.6061 11.809 12.4307 13.2611C12.662 13.6705 13.8793 13.5305 14.645 13.6403C14.7039 13.0672 14.8959 12.4704 14.7912 11.9275C14.5948 10.8976 14.3265 9.85914 13.9033 8.90468C13.6306 8.29064 13.0263 7.82095 12.2998 6.97207ZM7.52003 10.4796C5.61989 11.893 5.43664 13.4938 6.79138 14.7952C7.02917 15.0236 7.57238 15.2045 7.82763 15.0903C8.2443 14.9029 8.89005 14.3643 8.82896 14.1294C8.51045 12.9164 7.99997 11.753 7.52221 10.4818L7.52003 10.4796ZM36.0025 17.3311C35.9545 17.1759 35.9065 17.023 35.8585 16.8678C34.122 17.1522 32.3745 17.3849 30.6598 17.7577C30.2213 17.8525 29.881 18.3889 29.4949 18.7207C29.9814 18.8715 30.5377 19.2529 30.9391 19.1322C32.6516 18.613 34.3183 17.9451 36.0025 17.3311ZM44.8247 8.92838C44.5738 8.97793 44.3207 9.02964 44.0699 9.0792C44.0699 9.9841 43.9957 10.8998 44.1179 11.7896C44.1528 12.0417 44.7505 12.339 45.1148 12.3756C45.2872 12.3929 45.7344 11.7939 45.6799 11.5569C45.477 10.6628 45.1214 9.80097 44.8247 8.92838Z"></path>
</svg>
