<svg xmlns="http://www.w3.org/2000/svg" fill="none" viewBox="0 0 23 24" height="24" width="23">
<path fill="#8B7B5B" d="M19.8097 11.752C19.8504 11.9037 19.7929 12.1522 19.6833 12.2561C19.5205 12.4106 19.2803 12.5342 19.0585 12.5636C18.3367 12.6605 17.6108 12.7097 16.8862 12.7757C16.802 12.7841 16.7163 12.7869 16.6306 12.7855C15.9847 12.7757 15.9314 12.8234 15.8387 13.5508C16.3723 13.9917 16.9662 14.3259 17.6655 14.4747C17.9913 14.5435 18.3002 14.6896 18.6134 14.8047C18.9125 14.9157 19.0655 15.1445 19.0304 15.4226C18.9953 15.695 18.7201 15.9323 18.4154 15.9393C18.3143 15.9421 18.2076 15.9267 18.1149 15.8916C17.4605 15.6557 16.8006 15.4324 16.1602 15.16C15.8555 15.0308 15.5915 14.8033 15.2896 14.6095C15.0945 14.8384 14.8979 15.0701 14.7041 15.3032C14.5805 15.4521 14.6311 15.5714 14.7603 15.7006C15.1591 16.0966 15.5593 16.4883 15.9314 16.9082C16.1996 17.2115 16.4467 17.5415 16.6629 17.8841C16.8609 18.1972 16.8076 18.45 16.5787 18.6073C16.3386 18.7701 15.9861 18.6873 15.7755 18.4388C15.4567 18.0624 15.124 17.7002 14.8024 17.3294C14.4359 16.9068 14.0736 16.4827 13.6861 16.0334C13.6116 16.0573 13.5148 16.0783 13.4249 16.1162C13.1904 16.2187 13.1441 16.3774 13.2592 16.6105C13.5653 17.2326 13.8686 17.8574 14.1509 18.4893C14.3025 18.8277 14.4219 19.1816 14.5356 19.534C14.5932 19.711 14.6339 19.9089 14.4205 20.0311C14.2421 20.1322 13.7928 20.0606 13.665 19.9132C13.6215 19.8612 13.5822 19.8022 13.5541 19.7418C13.2957 19.1731 12.9194 18.6648 12.7523 18.0414C12.6287 17.5822 12.3703 17.1595 12.1499 16.6779C11.8999 16.7453 11.6795 16.8043 11.445 16.8689C11.5054 17.4783 11.5952 18.047 11.6093 18.6185C11.6261 19.2223 11.591 19.8303 11.5391 20.4341C11.511 20.7711 11.2428 21.0014 10.9844 21C10.7162 20.9972 10.4677 20.7725 10.389 20.4538C10.3694 20.3723 10.3441 20.2782 10.3624 20.2024C10.521 19.5396 10.3904 18.8684 10.4312 18.2014C10.4564 17.7816 10.4354 17.3575 10.4354 16.8984H9.65746C9.60269 17.0374 9.55635 17.2157 9.4693 17.3702C9.1365 17.9599 8.81073 18.5539 8.44143 19.1212C8.26029 19.4006 7.9626 19.4161 7.7281 19.2448C7.4936 19.0749 7.46131 18.9106 7.62279 18.5736C7.93171 17.9318 8.24906 17.2943 8.57623 16.6316C8.39088 16.5094 8.22659 16.3999 8.00473 16.2524C7.70142 16.5866 7.41918 16.9194 7.11307 17.2283C6.75781 17.5906 6.3843 17.9347 6.01359 18.2815C5.95321 18.3377 5.86615 18.3994 5.79033 18.398C5.62884 18.3952 5.33818 18.3756 5.32835 18.325C5.29324 18.1158 4.99275 17.9487 5.2104 17.6988C5.42243 17.4544 5.62182 17.1975 5.84369 16.963C6.26073 16.5206 6.68901 16.0896 7.14115 15.6248C6.89542 15.2274 6.66794 14.8595 6.45451 14.5141C5.949 14.8328 5.45753 15.1558 4.95343 15.4549C4.61923 15.6529 4.26538 15.8185 3.91855 15.9969C3.9045 16.0053 3.88765 16.0109 3.87221 16.0165C3.58014 16.1176 3.27964 16.0123 3.22769 15.7891C3.17433 15.5588 3.42989 15.2035 3.68264 15.1473C3.76689 15.1277 3.86238 15.101 3.92697 15.0462C4.15164 14.8525 4.35244 14.6306 4.58413 14.4452C4.82284 14.2543 5.08683 14.0984 5.33677 13.9215C5.54179 13.7755 5.74118 13.6196 5.9476 13.475C6.10767 13.364 6.19192 13.2376 6.04589 13.0214C5.87879 13.034 5.69765 13.0649 5.51651 13.0607C4.90709 13.0397 4.29768 13.027 3.69247 12.968C3.4664 12.947 3.23471 12.8361 3.03531 12.7139C2.78115 12.5608 2.71516 12.3291 2.7966 12.1059C2.87243 11.9023 3.11816 11.7759 3.39057 11.8026C3.99858 11.8587 4.6066 11.9149 5.21461 11.9669C5.31431 11.9753 5.41822 11.9669 5.51932 11.957C6.21018 11.8728 6.24107 11.8321 6.23124 11.0499C5.88581 10.9039 5.52072 10.7663 5.16968 10.6006C4.69646 10.3787 4.19517 10.1976 3.81183 9.82548C3.6686 9.68646 3.5338 9.52498 3.44393 9.34805C3.27824 9.02649 3.50291 8.72178 3.86097 8.77234C4.00701 8.7934 4.15024 8.86642 4.28785 8.93101C5.00679 9.26801 5.72293 9.61063 6.46434 9.96168C6.65531 9.60361 6.81819 9.29329 7.01056 8.93522C6.76483 8.65298 6.50084 8.34687 6.23265 8.04497C5.96164 7.74166 5.6808 7.44538 5.4126 7.13786C5.16406 6.85281 5.14861 6.60427 5.3466 6.42313C5.52353 6.26305 5.87037 6.28131 6.09082 6.49334C6.62863 7.01008 7.1552 7.54086 7.68738 8.06463C7.71125 8.0885 7.74355 8.10535 7.77444 8.125C8.01035 7.98739 8.24765 7.84698 8.52849 7.68269C8.50041 7.57878 8.48075 7.43134 8.42318 7.30075C8.12268 6.60146 7.80393 5.9092 7.50765 5.20711C7.41216 4.97963 7.26753 4.74372 7.43463 4.45025C7.64385 4.52748 7.83342 4.49378 7.92609 4.19749C8.83741 5.01473 9.05366 6.14791 9.51704 7.1491C9.78524 7.10697 10.0183 7.06906 10.2907 7.02412C10.3764 6.42875 10.3399 5.8432 10.3006 5.25204C10.2669 4.71704 10.2781 4.17643 10.2893 3.64003C10.2893 3.53051 10.3652 3.41536 10.4227 3.31286C10.5154 3.15138 10.6025 2.96602 10.8412 3.00534C11.0883 3.04606 11.233 3.19771 11.2653 3.44906C11.3144 3.81696 11.3804 4.18486 11.4015 4.55556C11.4323 5.09898 11.4562 5.64521 11.438 6.18863C11.4141 6.93004 11.4548 6.98621 12.3395 6.9497C12.4237 6.1788 12.8716 5.53568 12.977 4.76619C13.0359 4.35055 13.2297 3.90402 13.79 3.84926C14.0441 3.97142 14.0863 4.20452 14.0596 4.45025C13.9894 5.08775 13.9079 5.72244 13.6524 6.32343C13.5218 6.63657 13.4403 6.96936 13.328 7.32321C13.6187 7.53244 13.9135 7.74447 14.252 7.98739C14.3938 7.76272 14.5061 7.53805 14.662 7.34568C15.2026 6.67729 15.7502 6.01592 16.3147 5.36999C16.413 5.25766 16.6068 5.20851 16.764 5.17621C16.8385 5.16217 16.934 5.26468 17.021 5.31382C16.8806 5.52726 17.1909 5.70138 17.0744 5.91341C16.9031 6.22514 16.7626 6.55793 16.5562 6.84298C16.1097 7.46082 15.6224 8.04777 15.1773 8.66562C15.1099 8.75829 15.1352 8.9633 15.1843 9.08968C15.2447 9.23993 15.3795 9.3635 15.5059 9.5306C16.0268 9.13321 16.5478 8.74285 17.0645 8.34265C17.3959 8.08569 17.7147 7.81047 18.0489 7.55631C18.2019 7.44117 18.4814 7.53525 18.6892 7.73043C18.8858 7.91578 18.9012 8.14607 18.7524 8.32861C18.5291 8.60102 18.2623 8.84254 17.9941 9.07143C17.7287 9.30031 17.4493 9.51936 17.1544 9.70612C16.757 9.95747 16.3386 10.1737 15.8612 10.4433C15.9257 10.7972 16.0016 11.2044 16.0886 11.6846C16.5338 11.6425 16.9648 11.5905 17.3987 11.5625C18.0756 11.5189 18.7538 11.4754 19.4306 11.4712C19.5626 11.4712 19.7746 11.6313 19.8069 11.7548"></path>
</svg>
