<?xml version="1.0" standalone="no"?>
<!DOCTYPE svg PUBLIC "-//W3C//DTD SVG 20010904//EN"
 "http://www.w3.org/TR/2001/REC-SVG-20010904/DTD/svg10.dtd">
<svg version="1.0" xmlns="http://www.w3.org/2000/svg"
 width="250.000000pt" height="250.000000pt" viewBox="0 0 250.000000 250.000000"
 preserveAspectRatio="xMidYMid meet">
<metadata>
Created by potrace 1.11, written by Peter Selinger 2001-2013
</metadata>
<g transform="translate(0.000000,250.000000) scale(0.100000,-0.100000)"
fill="#000000" stroke="none">
<path d="M1206 2488 c3 -4 -2 -11 -10 -14 -9 -3 -16 -10 -16 -16 0 -5 5 -6 12
-2 7 4 8 3 4 -5 -4 -6 -11 -9 -16 -6 -4 3 -10 -2 -14 -10 -7 -19 -30 -19 -50
0 -8 8 -23 15 -34 15 -10 0 -22 3 -26 7 -3 4 -14 8 -22 9 -9 1 -13 0 -10 -3 6
-6 -25 -27 -55 -39 -11 -4 -15 -13 -11 -26 3 -14 1 -19 -6 -14 -7 4 -12 2 -12
-4 0 -8 -19 -11 -59 -8 -33 1 -57 0 -54 -4 2 -5 -1 -8 -7 -8 -6 0 -8 -4 -5
-10 3 -5 0 -10 -8 -10 -8 0 -22 -10 -33 -22 -10 -12 -13 -18 -6 -14 6 4 12 5
12 1 0 -5 -43 -26 -60 -29 -16 -4 -68 -41 -65 -46 2 -4 -3 -19 -11 -34 -18
-35 -18 -110 -1 -125 8 -6 13 -28 12 -50 -1 -22 2 -38 7 -35 4 3 8 -2 8 -11 0
-9 5 -13 10 -10 6 3 10 2 10 -3 0 -5 10 -9 23 -9 52 -1 68 -3 63 -11 -2 -4 15
-14 39 -21 23 -7 51 -20 61 -29 11 -10 29 -17 42 -16 13 1 22 -4 22 -13 0 -8
6 -13 13 -12 6 1 83 1 170 0 107 -1 156 -4 152 -11 -4 -6 -2 -17 5 -25 8 -10
8 -15 -1 -20 -8 -6 -7 -10 2 -16 8 -5 10 -9 4 -9 -6 0 -10 -44 -10 -113 0 -61
-3 -124 -7 -139 -4 -17 -3 -28 3 -28 6 0 7 -5 3 -12 -4 -6 -6 -35 -5 -64 1
-29 -3 -55 -9 -59 -8 -5 -7 -11 2 -23 10 -12 10 -14 1 -8 -7 4 -13 2 -13 -3 0
-6 5 -11 11 -11 8 0 7 -6 -2 -17 -8 -9 -9 -14 -3 -10 6 3 11 0 11 -8 0 -8 -4
-12 -9 -9 -4 3 -8 -2 -8 -10 0 -8 5 -18 10 -21 6 -3 10 -12 10 -18 0 -7 -4 -6
-10 3 -6 10 -10 -45 -11 -165 -1 -99 -1 -188 0 -197 1 -10 -4 -18 -11 -18 -9
0 -9 -3 2 -10 13 -9 13 -11 0 -20 -10 -6 -11 -10 -2 -10 6 0 12 -7 12 -15 0
-8 -5 -15 -11 -15 -5 0 -8 -4 -5 -8 2 -4 -4 -8 -15 -8 -10 0 -19 3 -19 7 0 4
-8 6 -17 5 -10 0 -17 5 -15 12 1 6 -2 12 -8 12 -5 0 -10 -4 -10 -9 0 -5 -19 9
-42 32 -24 23 -42 45 -40 50 1 4 -2 7 -7 7 -11 0 -26 39 -22 59 1 7 -2 10 -8
6 -8 -4 -8 2 -1 20 13 34 12 44 -1 25 -9 -12 -9 -11 -4 5 4 11 9 29 10 40 2
11 4 22 5 25 3 6 6 44 8 83 1 16 6 25 12 22 6 -3 10 -1 10 4 0 6 -4 11 -8 11
-5 0 -9 7 -9 15 0 8 4 12 9 9 4 -3 8 13 8 35 0 26 5 41 13 41 7 0 8 3 2 8 -12
8 -16 44 -5 37 4 -3 10 4 13 15 4 14 0 20 -11 20 -15 0 -15 2 -2 10 8 5 15 17
15 27 0 10 4 24 8 31 5 6 4 12 -1 12 -13 0 -7 43 7 48 9 3 9 8 -1 20 -7 9 -8
13 -2 9 7 -4 12 2 13 16 1 12 2 40 3 62 2 22 6 43 10 46 13 9 -31 49 -47 43
-8 -4 -21 -1 -29 5 -7 6 -16 8 -20 4 -12 -13 -186 -11 -179 1 4 7 1 7 -8 -1
-8 -6 -37 -10 -65 -9 -49 1 -89 -16 -61 -27 8 -4 6 -6 -3 -6 -15 -1 -19 -17
-20 -91 0 -20 -2 -22 -10 -10 -8 12 -10 10 -9 -10 1 -14 -1 -40 -5 -57 -4 -20
-2 -33 4 -33 5 0 9 -5 7 -12 -1 -7 16 -13 48 -15 69 -5 80 -10 66 -27 -9 -11
-9 -15 1 -19 8 -4 7 -6 -4 -6 -10 -1 -18 -6 -18 -12 0 -5 6 -7 13 -3 9 6 9 4
2 -7 -6 -8 -12 -41 -14 -73 -1 -33 -7 -68 -13 -79 -5 -11 -6 -17 -1 -14 5 4
10 0 10 -8 0 -8 -4 -12 -8 -10 -4 3 -9 -2 -13 -10 -3 -8 -1 -15 4 -15 5 0 6
-12 3 -28 -3 -15 -6 -53 -7 -85 -1 -35 -5 -56 -11 -53 -6 2 -12 -6 -13 -17 -1
-17 1 -19 8 -7 14 22 13 -6 -2 -33 -9 -19 -9 -20 3 -10 12 9 14 3 13 -40 0
-29 4 -58 10 -65 9 -12 12 -26 18 -69 1 -7 7 -13 15 -13 7 0 13 -5 13 -11 0
-6 7 -17 15 -26 8 -8 13 -18 10 -23 -5 -9 24 -25 40 -21 5 2 7 0 3 -4 -10 -10
40 -57 52 -50 6 4 7 -1 3 -11 -5 -14 -3 -16 10 -11 11 4 25 -1 35 -11 10 -10
24 -16 30 -14 7 2 11 -2 10 -9 -2 -8 7 -13 21 -14 13 0 26 -6 29 -13 3 -10 7
-10 20 0 12 10 14 10 8 1 -7 -13 6 -16 66 -16 20 0 25 -4 20 -15 -3 -9 -1 -13
5 -9 6 4 18 4 26 1 12 -4 15 -22 13 -89 -1 -46 -4 -86 -6 -89 -3 -3 -32 -6
-65 -7 -33 -1 -65 -6 -71 -10 -6 -5 -34 -10 -63 -13 -29 -2 -55 -7 -59 -11 -4
-5 -2 -5 5 -1 6 3 14 3 17 -2 5 -8 -16 -12 -66 -15 -16 0 -28 -5 -28 -10 0 -5
-7 -7 -15 -3 -8 3 -15 1 -15 -5 0 -6 -8 -5 -21 2 -15 8 -19 8 -15 0 5 -7 -5
-11 -28 -11 -22 0 -36 -5 -36 -12 0 -10 -2 -10 -8 -1 -4 7 -27 14 -50 15 -24
2 -40 7 -38 13 3 10 -17 15 -66 18 -14 1 -15 4 -5 16 7 9 0 7 -15 -4 -21 -16
-27 -27 -26 -52 1 -18 4 -30 6 -28 2 2 14 -6 26 -18 11 -13 31 -22 44 -21 13
1 22 -4 22 -12 0 -8 5 -14 11 -14 5 0 7 6 3 12 -6 10 -4 11 7 1 7 -7 26 -13
42 -13 20 0 26 -4 21 -12 -5 -8 0 -7 11 2 11 9 16 10 11 3 -4 -8 -2 -13 6 -14
7 0 22 -3 33 -6 11 -2 30 -4 43 -4 12 0 22 -4 22 -9 0 -5 7 -7 15 -4 8 4 15 2
15 -2 0 -5 23 -9 50 -8 42 1 50 -2 45 -15 -3 -11 0 -10 10 3 13 17 19 15 17
-5 -1 -3 5 -6 13 -6 8 0 12 4 9 9 -3 4 0 8 5 8 6 0 11 -4 11 -10 0 -14 301
-11 319 3 12 9 13 9 7 0 -4 -7 -2 -13 3 -13 6 0 11 5 11 11 0 6 5 7 13 2 21
-13 38 -12 44 3 8 20 24 17 16 -3 -5 -16 -4 -17 8 -2 8 10 46 21 94 29 44 7
85 17 92 22 7 5 14 5 18 -2 5 -8 12 -5 22 7 8 10 11 11 7 3 -7 -13 -5 -13 9
-1 9 7 23 11 32 8 8 -4 19 1 24 11 8 14 11 14 11 2 0 -12 3 -11 11 3 6 9 14
15 20 12 5 -4 9 -1 9 6 0 8 4 8 15 -1 13 -11 14 -10 9 4 -4 11 -1 16 10 16 9
0 19 7 23 16 5 13 7 13 14 2 7 -10 9 -9 9 5 0 10 7 20 16 24 9 3 14 13 11 24
-3 11 -1 17 3 14 19 -11 16 11 -3 30 -11 11 -16 13 -12 5 8 -13 7 -13 -9 0
-16 13 -20 12 -32 -5 -8 -10 -17 -16 -20 -12 -3 3 -15 -3 -27 -14 -11 -10 -27
-19 -34 -19 -8 0 -12 -4 -9 -9 3 -4 -28 -8 -69 -7 -48 0 -71 4 -65 11 5 6 -5
11 -28 12 -114 6 -130 8 -121 19 10 13 -31 11 -52 -2 -8 -5 -9 -3 -5 5 5 8 3
12 -5 10 -29 -3 -60 1 -55 9 2 4 -12 9 -32 10 -20 2 -37 4 -39 5 -7 7 -10 57
-4 52 5 -2 11 4 14 16 5 17 3 18 -9 8 -12 -10 -13 -9 -8 5 3 9 10 16 15 16 11
0 7 23 -6 32 -6 5 -5 8 4 8 7 0 11 6 8 14 -3 8 1 22 9 33 9 10 13 12 9 6 -7
-15 4 -17 25 -3 9 5 19 5 27 -2 10 -8 13 -6 13 6 0 9 5 16 11 16 5 0 7 -4 4
-10 -3 -5 -2 -10 4 -10 5 0 13 5 16 10 4 6 12 10 18 9 7 -1 26 -1 42 0 23 1
27 3 15 11 -13 8 -13 10 3 11 26 2 29 3 65 19 17 8 32 19 32 23 0 5 5 5 10 2
6 -3 10 -1 10 4 0 6 5 11 10 11 13 0 120 107 113 114 -3 2 5 9 16 15 11 6 18
17 15 25 -3 7 1 16 9 19 8 3 17 25 21 48 4 24 12 49 18 56 7 9 7 13 -1 13 -7
0 -9 5 -4 13 11 17 11 137 0 137 -5 0 -4 6 2 14 8 10 9 16 1 21 -6 3 -8 11 -4
16 3 5 0 16 -6 24 -10 12 -10 15 1 15 9 0 10 3 3 8 -6 4 -12 25 -13 47 -4 69
-8 90 -18 88 -5 -1 -9 7 -9 18 0 10 4 19 9 19 4 0 5 6 0 13 -4 6 -8 26 -9 43
-1 17 -5 38 -10 45 -17 28 -11 35 30 38 79 4 79 4 82 52 2 31 -2 48 -13 57
-13 9 -13 12 -3 12 11 0 11 3 2 12 -7 7 -12 32 -12 56 0 32 -3 41 -12 36 -9
-5 -8 -2 1 9 8 10 11 20 7 24 -3 3 -6 1 -6 -5 0 -7 -4 -12 -10 -12 -5 0 -9 5
-7 11 1 8 -28 12 -95 12 -65 1 -95 4 -90 11 4 7 1 7 -9 0 -8 -6 -49 -10 -93
-10 -92 2 -107 -7 -100 -60 2 -20 6 -40 9 -44 3 -5 0 -12 -5 -15 -7 -5 -5 -12
7 -22 10 -8 12 -12 6 -8 -16 8 -17 -7 -1 -23 9 -9 9 -12 0 -12 -7 0 -12 -5
-12 -11 0 -5 5 -7 10 -4 6 4 10 -11 10 -39 0 -25 5 -48 10 -51 6 -4 7 -11 3
-18 -11 -19 -10 -57 2 -47 7 6 11 -4 12 -33 2 -73 7 -102 18 -109 7 -5 6 -14
-3 -29 -8 -11 -9 -18 -3 -14 10 6 15 -16 14 -72 0 -13 4 -23 9 -23 5 0 4 -9
-2 -19 -7 -14 -7 -22 2 -27 7 -5 8 -3 3 6 -5 8 -4 11 3 6 11 -6 10 -23 -3 -61
-5 -16 -5 -17 4 -5 8 12 10 11 8 -7 0 -12 -5 -21 -10 -20 -5 1 -11 -7 -13 -17
-1 -10 -9 -23 -16 -27 -7 -5 -10 -9 -6 -9 17 0 -63 -71 -82 -73 -13 -1 -19 -6
-15 -15 4 -10 -4 -13 -28 -11 -18 2 -38 0 -45 -5 -8 -5 -12 0 -12 14 0 12 4
19 8 16 5 -3 9 1 9 9 0 8 -5 15 -10 15 -5 0 -3 8 4 17 11 13 11 15 1 9 -16 -9
-13 25 2 36 6 4 6 15 -1 30 -12 27 -6 51 10 42 7 -3 4 1 -6 9 -10 8 -14 17 -8
18 13 5 20 139 6 139 -6 0 -7 3 0 8 6 4 10 58 10 127 0 66 4 128 8 139 7 13 6
16 -3 11 -9 -6 -9 -3 -1 13 6 12 8 23 3 26 -13 8 -6 57 9 67 8 5 9 9 3 9 -7 0
-15 7 -18 16 -3 8 -2 13 3 10 10 -6 25 24 16 32 -3 3 -5 0 -5 -6 0 -7 -4 -12
-9 -12 -6 0 -4 15 4 34 13 30 13 36 -1 47 -14 12 -14 14 1 25 10 8 12 14 5 19
-5 3 -7 12 -3 18 4 6 9 36 10 67 2 30 4 61 5 69 1 8 10 16 20 19 10 2 15 8 12
13 -7 13 19 7 28 -6 5 -6 8 -4 8 5 0 14 15 19 67 23 6 0 9 6 6 13 -3 9 2 11
16 7 12 -3 21 -1 21 6 0 6 5 11 11 11 5 0 7 -6 4 -12 -4 -7 0 -5 8 5 8 9 22
17 31 17 9 0 19 7 22 15 4 8 10 13 14 10 4 -3 25 9 45 25 34 27 54 34 92 33 7
-1 10 3 7 8 -5 8 13 12 59 12 9 0 17 3 17 7 0 4 9 10 21 13 14 4 18 2 12 -7
-4 -6 0 -3 10 7 9 11 17 35 17 54 0 19 4 32 8 29 5 -3 9 1 9 9 0 8 -4 12 -9 9
-7 -4 -13 49 -9 82 1 7 -6 15 -15 18 -9 4 -14 13 -10 21 3 8 0 15 -7 15 -7 0
-20 8 -29 18 -26 27 -42 37 -60 38 -44 3 -49 5 -43 14 3 6 -2 10 -11 10 -10 0
-15 3 -11 6 12 12 -43 51 -67 49 -19 -2 -23 1 -20 13 4 13 2 13 -10 -2 -9 -11
-16 -16 -16 -11 0 5 -11 -2 -24 -14 -19 -18 -28 -21 -43 -13 -10 6 -16 12 -13
14 13 8 -57 65 -78 63 -15 -1 -21 3 -18 11 4 9 -5 8 -28 -4 -19 -9 -32 -20
-29 -24 2 -4 -4 -5 -13 -1 -14 5 -16 3 -11 -10 6 -15 4 -16 -14 -6 -15 8 -19
8 -15 0 4 -6 2 -11 -3 -11 -6 0 -11 9 -11 20 0 19 -15 25 -48 21 -7 -1 -11 4
-10 11 2 9 -9 13 -34 14 -21 1 -35 -3 -32 -8z m278 -151 c-1 -9 4 -13 10 -11
7 3 13 -7 14 -22 1 -15 8 -34 15 -42 9 -12 9 -14 0 -9 -9 6 -9 2 1 -17 14 -28
9 -96 -8 -96 -6 0 -4 -5 4 -10 13 -8 13 -10 -2 -10 -9 0 -20 -5 -24 -12 -5 -7
-3 -8 6 -3 9 5 11 4 6 -4 -6 -9 -11 -9 -21 -1 -10 8 -16 7 -24 -7 -6 -10 -11
-13 -11 -6 0 6 -8 9 -19 6 -26 -7 -32 9 -16 41 8 14 11 24 6 22 -4 -3 -8 1 -8
9 0 8 4 12 10 8 5 -3 7 15 5 43 -3 33 -8 48 -17 46 -7 -1 -10 2 -6 8 3 6 11 8
16 5 5 -4 9 -1 9 4 0 6 -5 11 -11 11 -5 0 -7 5 -4 10 3 6 2 10 -4 10 -13 0 -3
27 18 52 13 15 18 16 36 4 11 -8 19 -21 19 -29z m-420 21 c-5 -8 0 -7 11 2 10
8 16 10 12 4 -4 -7 1 -14 11 -16 10 -3 18 -14 20 -24 2 -22 10 -59 12 -59 1 0
3 -8 5 -18 2 -9 0 -15 -4 -13 -4 3 -7 -4 -7 -14 0 -10 5 -18 11 -17 5 1 9 -6
7 -16 -2 -10 4 -30 14 -45 12 -18 13 -27 5 -30 -6 -2 -8 -9 -4 -15 4 -7 -2 -5
-12 3 -11 9 -16 10 -11 3 4 -8 1 -13 -9 -13 -9 0 -13 5 -10 10 3 6 -1 10 -9
10 -9 0 -16 7 -16 15 0 8 -4 15 -10 15 -5 0 -10 7 -10 16 0 8 -4 12 -10 9 -9
-5 -15 23 -11 48 0 4 -3 7 -7 7 -5 0 -8 10 -7 23 1 12 -2 30 -7 39 -5 11 -5
25 1 35 5 10 12 26 15 36 3 9 10 17 16 17 6 0 8 -6 4 -12z m221 2 c-3 -5 -2
-10 3 -10 5 0 12 -9 15 -21 3 -12 10 -19 14 -16 5 3 10 -9 11 -26 2 -18 7 -34
13 -35 6 -3 5 -10 -3 -20 -9 -10 -9 -13 -1 -9 8 5 11 1 10 -12 0 -11 -5 -17
-9 -15 -7 5 -13 -46 -9 -70 1 -5 -6 -3 -15 5 -10 8 -15 9 -11 3 4 -7 0 -14 -8
-18 -8 -3 -14 -2 -14 2 4 24 -3 34 -18 28 -10 -4 -14 -4 -11 0 4 4 -1 18 -12
32 -11 13 -17 28 -14 33 3 5 0 9 -7 9 -10 0 -10 3 -1 12 9 9 7 15 -6 25 -12
10 -14 16 -5 19 10 4 10 11 2 26 -6 12 -7 18 -1 14 11 -6 26 21 23 42 -1 7 10
12 29 12 18 0 29 -4 25 -10z m382 -34 c-3 6 0 11 8 11 8 0 13 -3 10 -5 -3 -3
4 -16 16 -28 17 -19 19 -26 9 -44 -8 -15 -8 -20 -1 -16 15 10 14 -7 -1 -23
-10 -10 -10 -12 -1 -7 9 5 12 -2 10 -24 -1 -23 -7 -30 -22 -30 -15 0 -17 -2
-6 -9 9 -6 4 -10 -18 -13 -18 -3 -34 -1 -37 4 -3 5 -9 6 -13 4 -4 -3 -7 34 -7
82 1 64 4 86 14 85 6 -2 12 4 12 13 0 14 2 15 17 3 9 -8 14 -9 10 -3z m-730
-50 c-3 -7 1 -23 9 -35 8 -11 12 -21 8 -21 -3 0 -1 -7 6 -15 6 -8 9 -18 6 -24
-3 -5 -2 -11 4 -13 6 -2 12 -13 15 -26 2 -12 0 -20 -5 -17 -5 3 -11 1 -14 -4
-7 -11 -56 -11 -56 1 0 5 -5 6 -10 3 -6 -4 -10 -3 -9 2 3 20 -2 33 -15 33 -7
0 -13 10 -13 23 -1 46 -3 58 -11 53 -4 -2 -9 5 -9 17 -2 17 0 19 7 7 8 -12 10
-10 10 8 0 19 5 22 41 22 31 0 40 -3 36 -14z m896 -53 c-3 -7 -1 -13 5 -13 12
0 9 -47 -5 -61 -14 -14 -38 22 -37 56 2 37 0 34 23 32 11 0 17 -6 14 -14z
m-1052 -55 c1 -13 1 -26 0 -30 0 -5 7 -8 17 -8 14 0 15 -2 2 -10 -9 -6 -11
-10 -3 -10 7 0 10 -7 7 -15 -4 -8 -10 -13 -14 -10 -4 3 -11 -2 -14 -11 -5 -12
-10 -14 -20 -5 -7 6 -16 7 -20 3 -4 -4 -7 -2 -6 3 1 6 2 21 1 35 -1 20 -3 22
-11 10 -5 -8 -10 -10 -10 -4 0 5 6 16 13 23 10 11 10 13 0 7 -7 -4 -13 -2 -13
3 0 6 5 11 10 11 6 0 10 7 10 15 0 9 9 15 25 15 19 0 25 -5 26 -22z m130 -148
c0 12 2 12 6 1 5 -11 7 -11 14 0 6 11 11 11 20 2 9 -9 16 -9 31 0 15 10 21 9
28 -3 6 -10 10 -11 10 -2 0 6 7 12 16 12 9 0 12 -5 8 -12 -5 -9 -2 -9 9 1 13
10 17 10 17 1 0 -10 3 -10 14 -1 11 9 16 9 21 1 4 -7 18 -10 31 -7 14 2 27 1
29 -3 3 -5 14 -6 25 -3 11 3 20 0 20 -6 0 -8 5 -9 19 -1 14 7 22 7 27 -2 4 -6
3 -8 -4 -4 -6 3 -13 2 -16 -3 -7 -11 13 -9 34 3 8 5 12 6 8 1 -4 -4 0 -14 8
-22 18 -19 8 -39 -12 -22 -12 10 -13 9 -8 -5 4 -11 1 -16 -10 -16 -9 0 -16 6
-16 13 0 8 -3 9 -8 1 -11 -16 -133 -18 -143 -2 -7 10 -9 10 -9 1 0 -8 -14 -13
-35 -13 -19 0 -35 5 -35 10 0 6 -5 10 -11 10 -5 0 -7 -6 -3 -12 4 -7 -1 -6
-12 3 -10 9 -25 14 -31 12 -7 -3 -13 0 -13 7 0 6 -5 8 -10 5 -12 -7 -40 18
-40 35 0 6 -5 8 -12 4 -9 -5 -8 -2 1 10 11 13 16 14 22 4 7 -10 9 -10 10 2z
m654 -8 c-3 -3 -11 0 -18 7 -9 10 -8 11 6 5 10 -3 15 -9 12 -12z m-29 -15 c1
-7 -9 -14 -22 -15 -14 -1 -37 -10 -51 -19 -21 -14 -25 -15 -18 -3 7 12 6 13
-6 3 -12 -10 -18 -10 -29 0 -10 9 -11 9 -6 0 9 -16 -10 -17 -20 -2 -14 23 37
47 92 45 35 -2 51 1 47 8 -3 6 -2 7 2 3 5 -4 10 -13 11 -20z m-500 -456 c-1
-37 -4 -47 -15 -43 -11 4 -11 1 -2 -16 6 -11 7 -23 3 -26 -4 -3 -8 -23 -7 -45
1 -23 -2 -41 -7 -41 -4 0 -4 -7 -1 -17 4 -11 3 -14 -5 -9 -7 4 -12 1 -12 -9 0
-10 5 -13 13 -9 9 6 9 4 1 -7 -6 -8 -12 -34 -13 -59 -2 -60 -10 -82 -24 -73
-7 4 -6 -1 2 -10 7 -9 10 -17 5 -17 -5 0 -9 -25 -9 -56 0 -31 -3 -58 -8 -61
-4 -2 -5 -9 -2 -14 4 -5 1 -9 -6 -9 -9 0 -9 -3 0 -14 9 -10 9 -16 1 -21 -8 -5
-7 -11 2 -23 7 -9 8 -13 2 -9 -7 4 -11 -2 -11 -18 0 -16 4 -22 11 -18 6 4 4
-2 -4 -12 -9 -11 -10 -16 -2 -11 7 4 13 2 14 -6 0 -7 2 -20 2 -28 1 -8 7 -14
12 -13 6 1 11 -5 12 -13 1 -7 3 -21 4 -29 1 -9 7 -14 15 -11 8 4 13 -2 13 -16
0 -12 3 -18 7 -15 3 4 20 -8 36 -26 21 -23 28 -26 23 -12 -6 19 -5 19 8 3 7
-10 19 -18 25 -18 7 0 9 -5 5 -12 -5 -8 -2 -8 10 1 15 12 17 12 14 0 -2 -8 4
-13 15 -13 9 1 17 -2 17 -7 0 -5 7 -5 17 -2 10 4 14 2 10 -4 -3 -5 0 -10 8
-10 8 0 12 5 8 10 -3 5 4 4 16 -2 11 -7 21 -9 21 -5 0 3 6 2 13 -4 6 -5 21 -6
32 -2 11 4 26 5 34 2 9 -3 12 -1 8 5 -8 13 11 12 32 -1 10 -6 12 -5 7 2 -4 7
-1 13 8 13 28 2 32 4 72 24 21 11 46 28 55 37 9 10 19 15 23 11 3 -3 6 -1 6 5
0 6 14 24 31 41 18 18 25 31 17 32 -10 0 -10 2 0 6 6 2 12 14 12 24 0 11 5 17
10 14 6 -3 10 -2 10 4 0 5 3 18 7 28 6 16 5 17 -13 3 -18 -14 -18 -14 -4 4 17
21 22 73 9 97 -5 10 -3 21 3 27 9 9 7 12 -7 12 -17 0 -18 2 -5 10 8 5 10 10 5
10 -6 0 -11 28 -13 63 -2 34 -7 66 -12 71 -6 6 -5 15 3 25 6 8 7 12 1 8 -10
-6 -16 35 -17 121 0 20 -5 32 -14 32 -11 0 -11 4 -2 21 6 12 7 19 2 16 -9 -6
-12 20 -15 100 0 15 -4 20 -12 16 -6 -4 -4 2 4 12 11 14 12 17 1 11 -9 -6 -12
-4 -9 5 4 11 33 15 126 17 l122 3 1 -31 c1 -16 2 -38 3 -47 1 -14 -9 -19 -50
-23 l-52 -5 0 -77 c1 -51 5 -78 12 -78 6 0 12 -17 12 -38 4 -92 8 -121 17
-115 5 3 4 -5 -3 -17 -8 -15 -8 -20 -1 -16 7 5 11 -8 11 -39 0 -26 5 -56 11
-67 8 -15 8 -19 0 -14 -19 12 -12 -12 7 -24 14 -10 14 -11 1 -7 -13 4 -15 1
-12 -14 3 -10 10 -19 16 -19 6 0 2 -7 -9 -15 -18 -14 -18 -15 0 -8 18 6 18 5
0 -23 -17 -27 -17 -28 -1 -15 16 12 18 12 15 0 -2 -8 -9 -19 -17 -25 -11 -9
-12 -12 -1 -19 9 -6 11 -4 5 5 -5 9 -4 11 4 6 6 -4 9 -12 5 -17 -3 -5 -10 -6
-16 -3 -7 5 -9 1 -5 -9 3 -10 2 -17 -2 -17 -5 0 -7 -10 -3 -22 3 -14 2 -19 -6
-14 -11 6 -18 -20 -13 -47 1 -5 -2 -7 -6 -5 -5 3 -18 -6 -30 -19 -12 -13 -19
-23 -15 -23 4 0 2 -4 -4 -8 -5 -4 -18 -18 -28 -32 -13 -18 -17 -20 -12 -6 5
15 1 14 -18 -7 -14 -15 -34 -27 -45 -27 -11 0 -23 -5 -27 -12 -5 -7 -2 -8 7
-3 10 6 11 5 4 -3 -6 -7 -27 -13 -47 -14 -20 -2 -36 -7 -35 -12 1 -5 -14 -10
-33 -12 -52 -3 -52 -3 -44 -16 6 -10 4 -10 -7 -1 -14 14 -33 18 -26 5 3 -4
-28 -7 -68 -7 -40 -1 -71 3 -69 7 6 9 6 9 -48 12 -21 2 -45 9 -55 17 -9 8 -14
9 -10 3 3 -6 0 -11 -8 -11 -8 0 -12 4 -9 9 5 7 -10 11 -21 6 -2 -2 -11 6 -20
17 -9 11 -14 13 -10 5 4 -8 -3 -4 -15 10 -12 14 -19 19 -15 13 3 -7 2 -13 -4
-13 -5 0 -13 9 -16 20 -6 18 -17 24 -37 21 -5 0 -8 6 -8 15 0 8 -3 13 -7 11
-10 -6 -34 19 -26 27 4 3 1 6 -5 6 -7 0 -12 6 -12 14 0 8 -7 17 -15 20 -9 3
-15 11 -14 18 3 25 -1 39 -10 33 -6 -3 -10 3 -10 12 -1 50 -7 79 -21 91 -11
10 -12 12 -1 6 11 -5 13 -3 8 9 -4 10 -2 17 5 17 7 0 7 4 -1 13 -6 8 -8 17 -4
21 4 3 7 34 8 67 1 33 7 65 13 71 9 9 8 16 -1 27 -9 12 -9 13 1 7 9 -5 12 4
13 36 2 76 4 93 13 107 6 9 5 12 -2 8 -6 -5 -8 0 -5 13 3 11 9 18 12 15 4 -2
8 2 8 10 0 8 -3 12 -7 10 -4 -2 -7 2 -7 10 0 8 3 12 7 10 4 -3 8 27 9 65 l2
70 -43 1 c-24 1 -51 2 -60 2 -9 0 -19 6 -22 14 -3 8 -1 11 4 8 6 -4 10 8 10
28 0 18 3 37 7 40 3 4 61 7 128 7 l121 0 0 -49z m125 -1360 c0 11 2 11 6 1 4
-10 8 -10 21 0 12 10 14 10 8 1 -4 -7 -3 -13 3 -13 5 0 11 6 14 13 3 9 7 9 20
-2 11 -9 17 -10 17 -2 0 6 5 11 11 11 5 0 7 -5 3 -11 -5 -8 -1 -8 14 0 14 7
23 8 27 1 3 -5 21 -10 39 -10 17 0 38 -6 45 -12 11 -10 13 -10 7 0 -4 6 -2 12
3 12 6 0 11 -6 11 -12 0 -9 4 -8 10 2 7 11 10 11 10 2 0 -7 6 -12 13 -11 6 1
20 -1 29 -5 29 -13 -2 -34 -46 -31 -30 2 -36 0 -31 -12 4 -13 3 -14 -10 -3
-12 10 -18 10 -32 -1 -11 -10 -14 -10 -9 -1 4 6 2 12 -3 12 -6 0 -11 -6 -11
-12 0 -9 -4 -8 -10 2 -5 8 -10 10 -10 5 0 -14 -53 -15 -62 -1 -5 7 -8 7 -8 -1
0 -7 -5 -13 -11 -13 -5 0 -7 6 -3 13 6 9 4 9 -7 0 -7 -7 -17 -13 -22 -13 -4 0
-5 6 -1 13 6 10 4 10 -7 0 -15 -15 -33 -18 -25 -5 3 5 -1 9 -9 9 -8 0 -12 -4
-10 -8 7 -10 -22 -5 -32 6 -5 4 -1 5 7 0 8 -5 12 -4 7 0 -4 5 -31 8 -60 7 -71
-1 -86 9 -58 37 12 12 21 16 19 9 -2 -8 2 -14 7 -15 6 -1 9 4 7 11 -1 8 6 13
15 13 66 0 84 4 77 16 -5 8 -2 8 9 -2 14 -11 17 -11 18 0z"/>
<path d="M1690 2291 c0 -5 5 -13 10 -16 6 -3 10 -2 10 4 0 5 -4 13 -10 16 -5
3 -10 2 -10 -4z"/>
</g>
</svg>
